# xmcd CD database file
#
# Track frame offsets:
#	150
#	42337
#	64912
#	95962
#	117862
#	134062
#	157012
#
# Disc length: 2307 seconds
#
# Revision: 0
# Processed by: cddbd v1.5.1PL2 Copyright (c) Steve Scherf et al.
# Submitted via: CDex 1.51
#
DISCID=6a090107
DTITLE=Ray Bryant - Slow Freight
DYEAR=1966
DGENRE=Jazz
TTITLE0=Slow Freight
TTITLE1=Amen
TTITLE2=Satin Doll
TTITLE3=If You Go Away
TTITLE4=Ah, The Apple Tree (When The World Was Young)
TTITLE5=The Return Of The Prodigal Son
TTITLE6=The Fox Stalker
EXTD=YEAR: 1966
EXTT0=
EXTT1=
EXTT2=
EXTT3=
EXTT4=
EXTT5=
EXTT6=
PLAYORDER=
